# xmcd
#
# Track frame offsets:
#	150
#	15470
#	32242
#	46095
#	60412
#	73495
#	90872
#	102407
#	117897
#	133992
#
# Disc length: 2064 seconds
#
# Revision: 8
# Processed by: cddbd v1.5.2PL0 Copyright (c) Steve Scherf et al.
# Submitted via: audiograbber 1.83.01
#
DISCID=82080e0a
DTITLE=Dolly Parton - Super Hits
DYEAR=2009
DGENRE=Country
TTITLE0=My Tennessee Mountain Home (Live)
TTITLE1=Jolene
TTITLE2=The Seeker
TTITLE3=Coat Of Many Colors (Live)
TTITLE4=To Daddy (Live)
TTITLE5=Silver And Gold
TTITLE6=Why'd You Come In Here Lookin' Like That
TTITLE7=Rockin' Years (Duet With Ricky Van Shelton)
TTITLE8=Romeo
TTITLE9=He's Alive
EXTD=YEAR: 1999
EXTT0=
EXTT1=
EXTT2=
EXTT3=
EXTT4=
EXTT5=
EXTT6=
EXTT7=
EXTT8=
EXTT9=
PLAYORDER=
